<?xml version="1.0" encoding="utf-8"?>
<!-- Generator: Adobe Illustrator 22.0.0, SVG Export Plug-In . SVG Version: 6.00 Build 0)  -->
<svg version="1.1" xmlns="http://www.w3.org/2000/svg" xmlns:xlink="http://www.w3.org/1999/xlink" x="0px" y="0px"
	 viewBox="0 0 317.1 500" style="enable-background:new 0 0 317.1 500;" xml:space="preserve">
<style type="text/css">
	.st0{fill:#FFCC00;}
	.st1{fill:#FFFFFF;}
	.st2{fill:none;stroke:#000000;stroke-miterlimit:10;}
	.st3{fill:none;stroke:#000000;stroke-width:0.875;stroke-miterlimit:10;}
</style>
<g id="Capa_2">
	<g>
		<path class="st0" d="M158.5,493.9c-9.5-6.9-42.5-32.4-75.2-78.4c-22.6-31.9-40.6-67.2-53.5-105C14.2,264.6,6.1,215,5.6,162.8
			c12.2-0.7,44.5-4,76.9-20.3c29.5-14.9,63.5-43.2,76.1-96.7c12.6,53.5,46.6,81.8,76.1,96.7c32.3,16.3,64.7,19.6,76.9,20.3
			c-0.5,52.3-8.7,102.1-24.4,148c-12.9,37.8-31,73.2-53.6,105.1C200.8,461.8,168,487.1,158.5,493.9z"/>
		<path d="M158.5,63.8c15.5,44.5,46.6,69.4,73.8,83.2c29.5,14.9,59,19.2,74,20.5c-0.9,49.8-8.9,97.2-23.9,141.1
			c-12.7,37.3-30.4,72.2-52.6,103.6c-29.5,41.8-59.4,66.5-71.4,75.5c-12-9-41.8-33.7-71.4-75.5c-22.2-31.5-39.9-66.3-52.6-103.6
			c-14.9-43.9-22.9-91.3-23.9-141.1c15-1.3,44.6-5.6,74.1-20.5C112,133.2,143,108.4,158.5,63.8 M158.5,0
			c0,157.5-156.2,158-157.9,158c0,0,0,0,0,0c0,239.4,158,342,158,342s158-102.6,158-342c0,0,0,0,0,0C314.8,158,158.5,157.5,158.5,0
			L158.5,0z"/>
	</g>
	<g>
		<path class="st1" d="M158.1,464.6c-2.2-1.7-7-5.4-13.3-11.1c-9.6-8.8-24.3-23.7-39.7-44.8C94,393.4,84,376.8,75.4,359.4
			c-26-52.5-39.4-111.9-39.7-176.6h244.9c-0.3,64.7-13.7,124.1-39.7,176.6c-8.6,17.4-18.6,34-29.8,49.3c-15.3,21.1-30,36-39.7,44.8
			C165.1,459.2,160.4,462.9,158.1,464.6z"/>
		<path d="M278,185.4c-0.7,63.3-13.9,121.5-39.4,172.9c-8.5,17.2-18.5,33.7-29.6,48.9c-15.2,20.9-29.8,35.7-39.3,44.4
			c-5,4.6-9.1,7.9-11.6,9.8c-2.5-1.9-6.5-5.2-11.6-9.8c-9.5-8.7-24.1-23.5-39.3-44.4c-11.1-15.2-21-31.7-29.6-48.9
			c-25.5-51.5-38.8-109.6-39.4-172.9H278 M283.1,180.3h-250c0,76,17.8,135.6,40,180.3c9.6,19.3,19.9,35.8,30,49.7
			c15.1,20.8,29.7,35.7,40,45.1c9.2,8.4,15,12.4,15,12.4s5.8-4,15-12.4c10.3-9.4,24.9-24.3,40-45.1c10.1-13.9,20.5-30.4,30-49.7
			C265.3,315.8,283.1,256.2,283.1,180.3L283.1,180.3z"/>
	</g>
	<path class="st2" d="M301.9,166.2"/>
	<g>
		<g>
			<path d="M81.6,194v162.3c-20-40.3-36-93.9-36-162.3H81.6z"/>
		</g>
		<g>
			<path d="M144.6,194v247.6c-9.3-8.5-22.4-21.9-36-40.6V194H144.6z"/>
		</g>
		<g>
			<path d="M207.6,194v207c-13.6,18.7-26.7,32.2-36,40.6V194H207.6z"/>
		</g>
		<g>
			<path d="M270.6,194c0,68.4-16,122-36,162.3V194H270.6z"/>
		</g>
	</g>
</g>
<g id="Capa_3">
	<path class="st1" d="M38.2,185.5h240c0,0-2.7,45.7-3.7,50.7H41.9C41.9,236.2,37.2,196.5,38.2,185.5z"/>
	<circle class="st1" cx="158.1" cy="324" r="40"/>
	<circle class="st3" cx="158.1" cy="324" r="35"/>
	<g>
		<path d="M67.8,194.7h1.5l11.7,29.7c0.5,1.2,1.4,1.8,2.9,1.8h1v1.6h-13v-1.6h1c1.3,0,2.3-0.1,2.9-0.4c0.4-0.2,0.6-0.5,0.6-0.9
			c0-0.2-0.1-0.5-0.2-0.8l-2.7-6.9H60.6l-1.5,4c-0.4,1.1-0.6,1.9-0.6,2.5c0,0.7,0.3,1.3,1,1.8s1.6,0.8,2.9,0.8h1.1v1.6H51.7v-1.6
			c1.3,0,2.3-0.3,3-0.8c0.7-0.5,1.4-1.6,2-3.1L67.8,194.7z M67.1,200.9l-5.8,14.5h11.5L67.1,200.9z"/>
		<path d="M105.4,197.8l2-2.8h1.6l0.1,11.8h-1.5c-0.9-3.6-2.3-6.3-4-8c-1.8-1.7-3.8-2.5-6.1-2.5c-1.9,0-3.5,0.6-4.7,1.7
			c-1.2,1.2-1.8,2.6-1.8,4.2c0,1,0.2,2,0.7,2.7c0.5,0.8,1.2,1.4,2.1,1.9c0.9,0.5,2.7,1,5.3,1.6c3.6,0.8,6.2,1.6,7.6,2.4
			c1.5,0.8,2.5,1.8,3.3,3s1.1,2.7,1.1,4.3c0,2.9-1,5.4-3,7.3c-2,1.9-4.5,2.9-7.6,2.9c-3.4,0-6.3-1.1-8.7-3.3l-2.5,3h-1.6v-12.6H89
			c0.6,3.5,2,6.2,4.1,8.2s4.5,3,7.2,3c2.2,0,3.9-0.6,5.3-1.9c1.4-1.3,2.1-2.8,2.1-4.7c0-1-0.3-2-0.8-2.7s-1.3-1.4-2.4-2
			c-1.1-0.5-3.3-1.2-6.6-1.9c-3.6-0.8-6-1.8-7.3-2.9c-1.8-1.5-2.7-3.6-2.7-6.4c0-2.9,0.9-5.2,2.7-7c1.8-1.8,4.2-2.7,7-2.7
			c1.4,0,2.7,0.2,3.9,0.7S104,196.7,105.4,197.8z"/>
		<path d="M114.9,195.4h26.4l0.6,12.3h-1.5c-1-7.2-3.6-10.8-7.8-10.8c-0.9,0-1.4,0.1-1.8,0.4s-0.5,0.8-0.5,1.5v26
			c0,0.5,0.2,0.9,0.5,1.2s0.8,0.4,1.5,0.4h3.3v1.6h-15.1v-1.6h3.7c0.5,0,0.9-0.1,1.1-0.4s0.4-0.6,0.4-1v-26.3c0-0.6-0.2-1-0.5-1.3
			c-0.3-0.3-0.9-0.4-1.6-0.4c-2.1,0-3.9,1-5.3,3c-1.2,1.7-2,4.3-2.5,7.8h-1.6L114.9,195.4z"/>
		<path d="M144.1,195.4h15v1.6h-3c-0.8,0-1.4,0.1-1.7,0.4s-0.5,0.7-0.5,1.2V217c0,1.9,0.2,3.4,0.5,4.4c0.5,1.5,1.4,2.6,2.7,3.5
			c1.3,0.9,3.1,1.3,5.2,1.3c3,0,5.2-0.8,6.8-2.3c1.6-1.5,2.3-3.6,2.3-6.1v-14.9c0-1.3-0.1-2.3-0.3-3c-0.2-0.7-0.4-1.2-0.8-1.6
			c-0.3-0.4-0.8-0.7-1.3-0.8c-0.5-0.2-1.4-0.3-2.6-0.3v-1.6h12.3v1.6h-0.9c-1.4,0-2.4,0.4-3.1,1.1c-0.7,0.7-1,1.8-1,3.2v16
			c0,3.5-1,6.2-3,8c-2.2,2.1-5.2,3.1-8.9,3.1c-3.2,0-5.8-0.5-7.6-1.4c-1.8-0.9-3.2-2.2-4-3.9c-0.6-1.3-0.9-2.9-0.9-4.9v-19.6
			c0-0.5-0.2-0.9-0.5-1.2c-0.3-0.3-0.9-0.4-1.5-0.4h-3.1V195.4z"/>
		<path d="M205.6,197.9l1.5-3.1h1.4l0.6,13.1h-1.5c-1-3.7-2.2-6.4-3.6-8.1c-1.8-2.2-4-3.3-6.5-3.3c-2.7,0-4.9,1.2-6.7,3.6
			c-1.7,2.4-2.6,6.5-2.6,12.3c0,4.9,1,8.6,2.9,11.2c1.7,2.2,4,3.3,7,3.3c2.6,0,4.8-0.8,6.6-2.5c1.8-1.7,3-4.2,3.5-7.7h1.6
			c-0.5,3.9-1.8,6.8-4,8.9s-5,3.1-8.3,3.1c-2.7,0-5.2-0.7-7.5-2c-2.3-1.4-4.1-3.3-5.4-5.9c-1.4-2.6-2-5.4-2-8.4
			c0-3.2,0.7-6.3,2.1-9.1c1.4-2.8,3.2-5,5.4-6.4c2.2-1.4,4.5-2.1,7.1-2.1c1.4,0,2.8,0.2,4.1,0.7S204.1,196.7,205.6,197.9z"/>
		<path d="M213.7,195.4h15v1.6h-2.6c-1.1,0-1.9,0.1-2.2,0.4c-0.3,0.3-0.5,0.9-0.5,1.8v24.6c0,1,0.1,1.6,0.4,1.8
			c0.4,0.3,1,0.5,1.9,0.5h2.9v1.6h-15v-1.6h2.8c1,0,1.6-0.1,1.9-0.4s0.4-0.9,0.4-1.9v-24.6c0-0.9-0.1-1.5-0.4-1.7
			c-0.4-0.3-1.2-0.5-2.3-0.5h-2.5V195.4z"/>
		<path d="M246.1,194.7h1.5l11.7,29.7c0.5,1.2,1.4,1.8,2.9,1.8h1v1.6h-13v-1.6h1c1.3,0,2.3-0.1,2.9-0.4c0.4-0.2,0.6-0.5,0.6-0.9
			c0-0.2-0.1-0.5-0.2-0.8l-2.7-6.9h-12.9l-1.5,4c-0.4,1.1-0.6,1.9-0.6,2.5c0,0.7,0.3,1.3,1,1.8c0.7,0.5,1.6,0.8,2.9,0.8h1.1v1.6
			h-11.8v-1.6c1.3,0,2.3-0.3,3-0.8c0.7-0.5,1.4-1.6,2-3.1L246.1,194.7z M245.5,200.9l-5.8,14.5h11.5L245.5,200.9z"/>
	</g>
	<g>
		<path d="M178,304.2l-3.4,2.6c-1.9-2.4-4.1-4.3-6.8-5.6s-5.5-1.9-8.7-1.9c-3.4,0-6.6,0.8-9.6,2.5s-5.2,3.9-6.8,6.7
			s-2.4,5.9-2.4,9.4c0,5.3,1.8,9.6,5.4,13.2s8.1,5.3,13.6,5.3c6,0,11.1-2.4,15.1-7.1l3.4,2.6c-2.1,2.7-4.8,4.8-8,6.3
			s-6.8,2.2-10.8,2.2c-7.5,0-13.5-2.5-17.8-7.5c-3.7-4.2-5.5-9.4-5.5-15.4c0-6.3,2.2-11.6,6.6-15.9s10-6.5,16.6-6.5
			c4,0,7.7,0.8,10.9,2.4S175.9,301.4,178,304.2z"/>
	</g>
	<g>
		<path d="M157.9,316.2l16.1,34.5h-3.7l-5.4-11.3H150l-5.4,11.3h-3.8l16.3-34.5H157.9z M157.5,323.5l-5.9,12.5h11.8L157.5,323.5z"/>
	</g>
	<g>
		<path d="M148.7,114.6c-3.1,1.3-5.9,3.1-8.3,5.5c-2.4,2.4-4.2,5.2-5.5,8.3c-1.2,3-1.8,6.2-1.8,9.4c0,3.2,0.6,6.4,1.8,9.4
			c1.3,3.1,3.1,5.9,5.5,8.3c2.4,2.4,5.2,4.2,8.3,5.5c3,1.2,6.2,1.8,9.4,1.8c3.2,0,6.4-0.6,9.4-1.8c3.1-1.3,5.9-3.1,8.3-5.5
			c2.4-2.4,4.2-5.2,5.5-8.3c1.2-3,1.8-6.2,1.8-9.4c0-3.2-0.6-6.4-1.8-9.4c-1.3-3.1-3.1-5.9-5.5-8.3c-2.4-2.4-5.2-4.2-8.3-5.5
			c-3-1.2-6.2-1.8-9.4-1.8C154.9,112.8,151.7,113.4,148.7,114.6z M139.4,148.3c-1.2-0.8-2.3-1.6-3.3-2.7c-1.5-4.2-1.8-8.8-0.8-13.1
			c0.5-0.9,1-1.8,1.6-2.7c0.2-0.3,0.4-0.5,0.6-0.8l5.6,3.3c0,0,0,0.1,0,0.1c0,3,0.3,6,0.9,9c0,0,0,0,0,0l-4.4,6.9
			C139.6,148.4,139.5,148.4,139.4,148.3z M156.1,159.9c1,0.5,2,0.9,3,1.3c-4.4,0.2-8.8-0.8-12.7-3.1l9.5,1.7
			C156,159.8,156.1,159.9,156.1,159.9z M156.1,158.2l-11.2-2c-1.3-1.6-2.5-3.3-3.5-5.1c-0.3-0.5-0.5-0.9-0.8-1.4l4.4-6.9
			c0.1,0,0.2,0,0.3,0.1c2.7,0.7,5.5,1.3,8.3,1.7c0.2,0,0.3,0,0.4,0.1l5.2,9.1c-0.9,1.3-1.8,2.5-2.8,3.8
			C156.4,157.8,156.3,158,156.1,158.2z M174.7,154.3c-0.9,0.9-1.8,1.7-2.8,2.4c-0.2-1.3-0.4-2.6-0.8-3.8l5.6-10.4
			c1.5-0.7,3-1.5,4.4-2.5c0.2-0.1,0.3-0.3,0.4-0.4C181,144.9,178.8,150.2,174.7,154.3z M174.4,140.8c0.2,0.4,0.4,0.8,0.6,1.2
			l-5.4,10.1c0,0-0.1,0-0.1,0c-2.9,0.5-5.9,0.8-8.8,0.8l-5.4-9.3c0.8-1.6,1.7-3.1,2.5-4.7c0.6-1.1,1.1-2.1,1.7-3.2l11.2-1.1
			C172,136.6,173.3,138.7,174.4,140.8z M172.2,128.9c-0.5,1.4-1.1,2.8-1.7,4.2l-10.9,1.1c-0.1-0.2-0.3-0.3-0.4-0.5
			c-1.3-1.5-2.6-2.9-3.9-4.3c0,0,0,0,0,0c-0.5-0.5-1-1-1.6-1.6l3-9.1c0.2-0.1,0.4-0.1,0.6-0.1c1.6-0.2,3.3-0.4,4.9-0.5
			c1-0.1,2-0.1,3.1,0l7.5,8.4C172.7,127.2,172.5,128.1,172.2,128.9z M174.7,121.2c2.1,2.1,3.7,4.4,4.8,6.9c-1.4-1-2.9-1.8-4.5-2.4
			c-0.2-0.1-0.5-0.2-0.8-0.3l-7.4-8.3c0.1-0.4,0.1-0.7,0.1-1.1C169.8,117.2,172.4,119,174.7,121.2z M150.6,115.7
			C150.6,115.7,150.7,115.7,150.6,115.7c1.7,0.6,3.3,1.5,4.7,2.5l-2.8,8.5c0,0,0,0,0,0c-0.6,0.2-1.2,0.5-1.7,0.7
			c-2.3,1.1-4.6,2.2-6.8,3.7l-5.6-3.3c0-0.2,0-0.4,0.1-0.5c0.4-1,0.7-2,1.2-3c0.3-0.8,0.7-1.5,1.1-2.2c0.3-0.3,0.5-0.6,0.8-0.9
			C144.2,118.6,147.3,116.7,150.6,115.7C150.7,115.6,150.6,115.6,150.6,115.7z"/>
	</g>
	<g>
		<g>
			<path d="M150.5,171c3-0.3,5.6,1.2,5.6,1.2s-2.3,3.6-5.1,2.8c-3.4-1-5.8-1-5.8-1C145.2,173.8,147.5,171.4,150.5,171z"/>
			<path d="M143.5,168.1c3-0.3,5.6,1.2,5.6,1.2s-2.3,3.6-5.1,2.8c-3.4-1-5.8-1-5.8-1C138.1,170.8,140.5,168.4,143.5,168.1z"/>
			<path d="M136.9,165.8c2.5-0.3,4.7,1.1,4.7,1.1s-1.9,3.1-4.3,2.4c-2.8-0.8-4.8-0.9-4.8-0.9C132.4,168.1,134.4,166.1,136.9,165.8z"
				/>
			<path d="M131.3,162.8c2.3-0.3,4.4,1,4.4,1s-1.8,2.9-4,2.2c-2.6-0.8-4.5-0.8-4.5-0.8C127.2,165,129,163.1,131.3,162.8z"/>
			<path d="M127.9,160c2,0,3.6,1.3,3.6,1.3s-1.8,2.3-3.5,1.5c-2.1-0.9-3.7-1.1-3.7-1.1C124.2,161.5,126,160,127.9,160z"/>
			<path d="M125.5,156.8c1.6,0.3,2.8,1.6,2.8,1.6s-1.8,1.6-3.2,0.7c-1.6-1.1-2.9-1.5-2.9-1.5C122.2,157.5,123.9,156.6,125.5,156.8z"
				/>
			<path d="M123.5,153.7c1.4,0.2,2.4,1.3,2.4,1.3s-1.5,1.5-2.7,0.7c-1.4-0.9-2.5-1.2-2.5-1.2C120.7,154.4,122.1,153.5,123.5,153.7z"
				/>
			<path d="M151.6,169.5c1.9,2.4,4.8,3.1,4.8,3.1s0.9-4.2-1.7-5.6c-3-1.7-4.8-3.4-4.8-3.4C149.7,163.7,149.7,167.2,151.6,169.5z"/>
			<path d="M144.1,166.5c2.1,2.1,5.2,2.5,5.2,2.5s0.4-4.2-2.3-5.4c-3.2-1.3-5.2-2.8-5.2-2.8C141.6,161,142,164.4,144.1,166.5z"/>
			<path d="M137.9,164.1c1.1,2,3.3,2.8,3.3,2.8s1.2-3.1-0.6-4.4c-2.1-1.6-3.2-3.1-3.2-3.1C137.2,159.6,136.8,162.1,137.9,164.1z"/>
			<path d="M132.8,160.5c0.5,2.3,2.4,3.8,2.4,3.8s2.2-2.6,0.8-4.5c-1.6-2.2-2.2-4-2.2-4C133.6,155.9,132.3,158.2,132.8,160.5z"/>
			<path d="M129.6,158c0.1,2,1.5,3.5,1.5,3.5s2.2-1.9,1.3-3.6c-1-2.1-1.3-3.6-1.3-3.6C130.9,154.2,129.5,156,129.6,158z"/>
			<path d="M126.9,155.6c0,1.7,1,3,1,3s1.9-1.5,1.3-3c-0.7-1.8-0.9-3.2-0.9-3.2C128.2,152.5,127,153.9,126.9,155.6z"/>
			<path d="M125,152.6c-0.2,1.3,0.6,2.5,0.6,2.5s1.8-1,1.4-2.3c-0.5-1.5-0.5-2.6-0.5-2.6C126.4,150.2,125.2,151.3,125,152.6z"/>
			<path d="M122.2,151.4c0.9,1.2,2.2,1.7,2.2,1.7s-0.1-2.3-1.3-3.1c-1.4-1-1.7-1.5-1.7-1.5C121.3,148.6,121.3,150.2,122.2,151.4z"/>
			<path d="M123.8,151.7c0.5,0.9,1,1.8,1.5,2.6c0.5,0.8,1.1,1.6,1.8,2.4c1.2,1.6,2.7,3,4.2,4.2c0.8,0.6,1.6,1.2,2.4,1.7
				c2.5,1.5,5.3,2.7,8.1,3.6c1.9,0.6,3.8,1.2,5.7,1.8c0.2,0.1,0.5,0.2,0.7,0.2c1.7,0.6,3.3,1.2,4.9,2c0.9,0.4,1.8,0.9,2.7,1.4
				c0.9,0.5,1.7,1.1,2.5,1.7c0,0,0.6,0.5,0.6,0.5c1.3,1.1,2.6,2.5,3.5,4c0,0.1-0.3,0.2-0.4,0.1c-1.1-1.3-2.2-2.5-3.6-3.5l-0.6-0.4
				c-0.8-0.5-1.7-1-2.5-1.5c-0.9-0.5-1.8-0.9-2.7-1.3c-0.9-0.4-1.8-0.8-2.7-1.1l-0.7-0.3l-0.7-0.3c-0.5-0.2-0.9-0.3-1.4-0.5
				c-1.9-0.7-3.8-1.3-5.7-2c-1.4-0.5-2.8-1.1-4.2-1.7c0,0-0.3-0.2-0.3-0.2c-1-0.5-2-1-3-1.6l-0.6-0.4c-0.8-0.6-1.7-1.2-2.4-1.8
				c-2.3-2-4.3-4.3-5.8-6.9c-0.5-0.9-1-1.8-1.4-2.7L123.8,151.7z"/>
		</g>
		<g>
			<path d="M165.7,171.1c-3-0.3-5.6,1.2-5.6,1.2s2.3,3.6,5.1,2.8c3.4-1,5.8-1,5.8-1C171.1,173.8,168.7,171.4,165.7,171.1z"/>
			<path d="M172.8,168.1c-3-0.3-5.6,1.2-5.6,1.2s2.3,3.6,5.1,2.8c3.4-1,5.8-1,5.8-1C178.1,170.9,175.7,168.4,172.8,168.1z"/>
			<path d="M179.4,165.8c-2.5-0.3-4.7,1.1-4.7,1.1s1.9,3.1,4.3,2.4c2.8-0.8,4.8-0.9,4.8-0.9C183.8,168.2,181.8,166.1,179.4,165.8z"
				/>
			<path d="M184.9,162.8c-2.3-0.3-4.4,1-4.4,1s1.8,2.9,4,2.2c2.6-0.8,4.5-0.8,4.5-0.8C189.1,165.1,187.2,163.1,184.9,162.8z"/>
			<path d="M188.3,160.1c-2,0-3.6,1.3-3.6,1.3s1.8,2.3,3.5,1.5c2.1-0.9,3.7-1.1,3.7-1.1C192,161.5,190.3,160.1,188.3,160.1z"/>
			<path d="M190.7,156.9c-1.6,0.3-2.8,1.6-2.8,1.6s1.8,1.6,3.2,0.7c1.6-1.1,2.9-1.5,2.9-1.5C194,157.6,192.4,156.6,190.7,156.9z"/>
			<path d="M192.8,153.7c-1.4,0.2-2.4,1.3-2.4,1.3s1.5,1.5,2.7,0.7c1.4-0.9,2.5-1.2,2.5-1.2C195.6,154.4,194.2,153.5,192.8,153.7z"
				/>
			<path d="M164.7,169.5c-1.9,2.4-4.8,3.1-4.8,3.1s-0.9-4.2,1.7-5.6c3-1.7,4.8-3.4,4.8-3.4C166.5,163.8,166.5,167.2,164.7,169.5z"/>
			<path d="M172.2,166.5c-2.1,2.1-5.2,2.5-5.2,2.5s-0.4-4.2,2.3-5.4c3.2-1.3,5.2-2.8,5.2-2.8C174.7,161,174.3,164.4,172.2,166.5z"/>
			<path d="M178.3,164.1c-1.1,2-3.3,2.8-3.3,2.8s-1.2-3.1,0.6-4.4c2.1-1.6,3.2-3.1,3.2-3.1C179,159.6,179.5,162.2,178.3,164.1z"/>
			<path d="M183.4,160.5c-0.5,2.3-2.4,3.8-2.4,3.8s-2.2-2.6-0.8-4.5c1.6-2.2,2.2-4,2.2-4C182.6,155.9,183.9,158.3,183.4,160.5z"/>
			<path d="M186.6,158c-0.1,2-1.5,3.5-1.5,3.5s-2.2-1.9-1.3-3.6c1-2.1,1.3-3.6,1.3-3.6C185.3,154.2,186.7,156,186.6,158z"/>
			<path d="M189.3,155.6c0,1.7-1,3-1,3s-1.9-1.5-1.3-3c0.7-1.8,0.9-3.2,0.9-3.2C188,152.5,189.3,153.9,189.3,155.6z"/>
			<path d="M191.3,152.6c0.2,1.3-0.6,2.5-0.6,2.5s-1.8-1-1.4-2.3c0.5-1.5,0.5-2.6,0.5-2.6C189.9,150.2,191.1,151.3,191.3,152.6z"/>
			<path d="M194,151.4c-0.9,1.2-2.2,1.7-2.2,1.7s0.1-2.3,1.3-3.1c1.4-1,1.7-1.5,1.7-1.5C194.9,148.6,194.9,150.2,194,151.4z"/>
			<path d="M192.5,151.7c-0.5,0.9-1,1.8-1.5,2.6c-0.5,0.8-1.1,1.6-1.8,2.4c-1.2,1.6-2.7,3-4.2,4.2c-0.8,0.6-1.6,1.2-2.4,1.7
				c-2.5,1.5-5.3,2.7-8.1,3.6c-1.9,0.6-3.8,1.2-5.7,1.8c-0.2,0.1-0.5,0.2-0.7,0.2c-1.7,0.6-3.3,1.2-4.9,2c-0.9,0.4-1.8,0.9-2.7,1.4
				c-0.9,0.5-1.7,1.1-2.5,1.7c0,0-0.6,0.5-0.6,0.5c-1.3,1.1-2.6,2.5-3.5,4c0,0.1,0.3,0.2,0.4,0.1c1.1-1.3,2.2-2.5,3.6-3.5l0.6-0.4
				c0.8-0.5,1.7-1,2.5-1.5c0.9-0.5,1.8-0.9,2.7-1.3c0.9-0.4,1.8-0.8,2.7-1.1l0.7-0.3l0.7-0.3c0.5-0.2,0.9-0.3,1.4-0.5
				c1.9-0.7,3.8-1.3,5.7-2c1.4-0.5,2.8-1.1,4.2-1.7c0,0,0.3-0.2,0.3-0.2c1-0.5,2-1,3-1.6l0.6-0.4c0.8-0.6,1.7-1.2,2.4-1.8
				c2.3-2,4.3-4.3,5.8-6.9c0.5-0.9,1-1.8,1.4-2.7L192.5,151.7z"/>
		</g>
	</g>
	<g>
	</g>
	<g>
	</g>
	<g>
	</g>
	<g>
	</g>
	<g>
	</g>
</g>
</svg>
